<svg width="300" height="49" viewBox="0 0 300 49" fill="none" xmlns="http://www.w3.org/2000/svg">
<path d="M292.811 16.2731C281.611 15.0469 270.88 10.9086 262.649 4.57341C255.304 -1.0976 244.834 -1.19978 237.541 4.57341C217.798 20.1048 181.698 20.1048 161.642 3.80706C154.61 -1.91504 144.452 -0.842153 137.315 4.72667C117.52 20.1048 81.6286 20.0537 61.6772 3.85815C54.6448 -1.86395 44.3305 -0.688873 37.1418 4.87995C29.0675 11.113 18.3886 15.1491 7.08455 16.3241C2.96926 16.7329 0 20.3092 0 24.3453V40.7963C0 45.4455 3.95901 49.3795 8.69941 48.9708C23.702 47.6935 37.9232 43.1465 50.0607 35.7384C79.4928 53.4156 121.427 53.1602 150.078 35.7384C179.51 53.4156 221.444 53.1602 250.095 35.7384C262.232 42.9932 276.61 47.6424 291.3 48.9197C296.04 49.3284 299.999 45.3944 299.999 40.7452V24.6008C300.051 20.5135 297.03 16.7329 292.811 16.2731Z" fill="black"/>
</svg>
