<svg width="297" height="124" viewBox="0 0 297 124" fill="none" xmlns="http://www.w3.org/2000/svg">
<path d="M289.882 90.8912C278.795 89.6507 268.171 85.4641 260.023 79.055C252.751 73.3179 242.385 73.2145 235.165 79.055C215.62 94.7677 179.881 94.7677 160.026 78.2797C153.064 72.4909 143.007 73.5763 135.942 79.2101C116.345 94.7677 80.8123 94.716 61.0605 78.3314C54.0983 72.5426 43.8872 73.7314 36.7704 79.3652C28.7768 85.6709 18.2047 89.7541 7.0137 90.9429C2.93957 91.3564 0 94.9744 0 99.0576V115.701C0 120.404 3.91942 124.384 8.61241 123.97C23.465 122.678 37.5439 118.078 49.5601 110.584C78.6979 128.467 120.213 128.209 148.577 110.584C177.715 128.467 219.23 128.209 247.594 110.584C259.61 117.923 273.844 122.627 288.387 123.919C293.08 124.332 296.999 120.352 296.999 115.649V99.3161C297.051 95.1812 294.06 91.3564 289.882 90.8912ZM289.882 16.4629C278.795 15.2225 268.171 11.0359 260.023 4.62677C252.751 -1.11041 242.385 -1.21378 235.165 4.62677C215.62 20.3394 179.881 20.3394 160.026 3.85148C153.064 -1.93739 143.007 -0.851975 135.942 4.78183C116.345 20.3394 80.8123 20.2877 61.0605 3.90317C54.0983 -1.8857 43.8872 -0.696914 36.7704 4.93689C28.7768 11.2426 18.2047 15.3258 7.0137 16.5146C2.93957 16.9281 0 20.5462 0 24.6294V41.2724C0 45.9758 3.91942 49.9557 8.61241 49.5422C23.465 48.25 37.5439 43.6499 49.5601 36.1554C78.6979 54.0389 120.213 53.7804 148.577 36.1554C177.715 54.0389 219.23 53.7804 247.594 36.1554C259.61 43.4949 273.844 48.1983 288.387 49.4905C293.08 49.904 296.999 45.9241 296.999 41.2207V24.8878C297.051 20.7529 294.06 16.9281 289.882 16.4629Z" fill="black"/>
</svg>
