<svg width="300" height="201" viewBox="0 0 300 201" fill="none" xmlns="http://www.w3.org/2000/svg">
<path d="M292.811 167.462C281.611 166.206 270.88 161.965 262.649 155.473C255.304 149.661 244.834 149.556 237.541 155.473C217.798 171.389 181.698 171.389 161.642 154.687C154.61 148.823 144.452 149.923 137.315 155.63C117.52 171.389 81.6286 171.336 61.6772 154.74C54.6448 148.876 44.3305 150.08 37.1418 155.787C29.0675 162.174 18.3886 166.31 7.08455 167.514C2.96926 167.933 0 171.598 0 175.734V192.593C0 197.357 3.95901 201.389 8.69941 200.97C23.702 199.661 37.9232 195.001 50.0607 187.41C79.4928 205.525 121.427 205.263 150.078 187.41C179.51 205.525 221.444 205.263 250.095 187.41C262.232 194.844 276.61 199.609 291.3 200.918C296.04 201.337 299.999 197.305 299.999 192.541V175.996C300.051 171.808 297.03 167.933 292.811 167.462ZM292.811 92.0692C281.611 90.8126 270.88 86.5718 262.649 80.0796C255.304 74.2681 244.834 74.1634 237.541 80.0796C217.798 95.9959 181.698 95.9959 161.642 79.2943C154.61 73.4304 144.452 74.5299 137.315 80.2367C117.52 95.9959 81.6286 95.9436 61.6772 79.3466C54.6448 73.4827 44.3305 74.6869 37.1418 80.3938C29.0675 86.7812 18.3886 90.9174 7.08455 92.1215C2.96926 92.5404 0 96.2053 0 100.341V117.2C0 121.965 3.95901 125.996 8.69941 125.577C23.702 124.268 37.9232 119.609 50.0607 112.017C79.4928 130.132 121.427 129.87 150.078 112.017C179.51 130.132 221.444 129.87 250.095 112.017C262.232 119.451 276.61 124.216 291.3 125.525C296.04 125.944 299.999 121.912 299.999 117.148V100.603C300.051 96.4148 297.03 92.5404 292.811 92.0692ZM292.811 16.6763C281.611 15.3674 270.88 11.1789 262.649 4.68674C255.304 -1.1248 244.834 -1.22951 237.541 4.68674C217.798 20.603 181.698 20.603 161.642 3.90139C154.61 -1.9625 144.452 -0.863017 137.315 4.84381C117.52 20.603 81.6286 20.5507 61.6772 3.95375C54.6448 -1.91014 44.3305 -0.705951 37.1418 5.00087C29.0675 11.3883 18.3886 15.5245 7.08455 16.7287C2.96926 17.1475 0 20.8124 0 24.9486V41.8073C0 46.5717 3.95901 50.6031 8.69941 50.1842C23.702 48.8753 37.9232 44.2156 50.0607 36.624C79.4928 54.7392 121.427 54.4775 150.078 36.624C179.51 54.7392 221.444 54.4775 250.095 36.624C262.232 44.0586 276.61 48.823 291.3 50.1319C296.04 50.5507 299.999 46.5193 299.999 41.7549V25.2104C300.051 21.0219 297.03 17.1475 292.811 16.6763Z" fill="black"/>
</svg>
