<svg width="89" height="27" viewBox="0 0 89 27" fill="none" xmlns="http://www.w3.org/2000/svg">
<path fill-rule="evenodd" clip-rule="evenodd" d="M13.0679 17.145C12.596 16.9538 12.0526 16.7596 11.4375 16.5625C9.8125 16.0312 8.52604 15.5104 7.57812 15C6.76291 14.5595 6.07632 14.0708 5.51836 13.5339C5.45811 13.5026 5.39902 13.4714 5.34107 13.4402C2.64233 11.982 1.20312 9.95478 1.20312 7.35938C1.20312 6.03034 1.57697 4.8337 2.32811 3.78667L2.32869 3.78586C3.0892 2.73023 4.16365 1.92245 5.52539 1.3514L5.5267 1.35085C6.89783 0.780464 8.42273 0.5 10.0938 0.5C11.7797 0.5 13.3012 0.808148 14.6476 1.43692C15.9949 2.05564 17.055 2.94261 17.8088 4.10097C18.0377 4.44775 18.232 4.80847 18.3919 5.18271C18.7726 5.5393 19.1055 5.93672 19.3906 6.375C20.099 7.44792 20.4531 8.66667 20.4531 10.0312H15.7656C15.7656 9.46101 15.6673 8.96101 15.4706 8.53125H13.2656V8.03125C13.2656 7.56116 13.192 7.16048 13.051 6.81981C12.7318 6.76285 12.3867 6.73438 12.0156 6.73438C10.8698 6.73438 9.97917 6.97917 9.34375 7.46875C8.76136 7.90793 8.44587 8.47837 8.39727 9.18007C9.04503 9.51524 9.88922 9.84402 10.9411 10.1619C13.6412 10.974 15.6721 11.9984 16.9739 13.2669C17.6484 13.924 18.1504 14.6659 18.4801 15.4878C18.5295 15.5333 18.5778 15.579 18.625 15.625C19.8438 16.8125 20.4531 18.2917 20.4531 20.0625C20.4531 22.0312 19.7083 23.5781 18.2188 24.7031C16.7292 25.8177 14.724 26.375 12.2031 26.375C10.4531 26.375 8.85938 26.0573 7.42188 25.4219C6.4239 24.9735 5.58909 24.4122 4.91746 23.7379C3.55303 23.0739 2.47739 22.185 1.71197 21.063L1.71016 21.0604C0.899481 19.8556 0.5 18.4648 0.5 16.9062V16.4062H6.20312V16.9062C6.20312 17.7661 6.39243 18.4194 6.74019 18.9062H7.70312C7.70312 19.1992 7.72355 19.475 7.7644 19.7337C8.36489 20.0152 9.16694 20.1719 10.2031 20.1719C11.2567 20.1719 12.0094 19.9595 12.519 19.5952C13.007 19.2364 13.25 18.755 13.25 18.0938C13.25 17.724 13.188 17.4108 13.0679 17.145ZM13.6788 17.4094C13.7263 17.6217 13.75 17.8498 13.75 18.0938C13.75 18.9062 13.4375 19.5417 12.8125 20C12.1875 20.4479 11.3177 20.6719 10.2031 20.6719C9.30153 20.6719 8.53541 20.5585 7.90478 20.3318C8.4054 21.8918 9.83818 22.6719 12.2031 22.6719C13.3177 22.6719 14.1875 22.4479 14.8125 22C15.4375 21.5417 15.75 20.9062 15.75 20.0938C15.75 19.2083 15.4375 18.5312 14.8125 18.0625C14.5339 17.8489 14.1561 17.6312 13.6788 17.4094ZM6.15035 18.9062C5.8522 18.3643 5.70312 17.6977 5.70312 16.9062H1C1 17.0753 1.00497 17.2419 1.0149 17.4062C1.09127 18.6699 1.4613 19.7949 2.125 20.7812C2.62183 21.5095 3.26319 22.1377 4.04906 22.6658C3.34969 21.5777 3 20.3246 3 18.9062H6.15035ZM17.5415 14.7473C17.2886 14.348 16.9831 13.9739 16.625 13.625C15.4062 12.4375 13.4635 11.4427 10.7969 10.6406C9.86001 10.3575 9.06924 10.0614 8.42457 9.75213C8.53132 10.3278 8.88979 10.8218 9.5 11.2344C10.25 11.7344 11.349 12.2031 12.7969 12.6406C14.778 13.2365 16.3595 13.9387 17.5415 14.7473ZM13.6286 6.96304C13.7199 7.28648 13.7656 7.64255 13.7656 8.03125H15.1741C15.0597 7.87878 14.9288 7.73816 14.7812 7.60938C14.4605 7.32425 14.0762 7.1088 13.6286 6.96304ZM17.4277 4.43176C17.4154 4.4128 17.4031 4.39388 17.3906 4.375C16.6927 3.30208 15.7083 2.47396 14.4375 1.89062C13.1667 1.29688 11.7188 1 10.0938 1C8.47917 1 7.02083 1.27083 5.71875 1.8125C4.42708 2.35417 3.43229 3.10938 2.73438 4.07812C2.04688 5.03646 1.70312 6.13021 1.70312 7.35938C1.70312 9.39179 2.65738 11.0664 4.56589 12.3831C3.99071 11.483 3.70312 10.4751 3.70312 9.35938C3.70312 8.13021 4.04688 7.03646 4.73438 6.07812C5.43229 5.10938 6.42708 4.35417 7.71875 3.8125C9.02083 3.27083 10.4792 3 12.0938 3C13.7188 3 15.1667 3.29688 16.4375 3.89062C16.7895 4.05222 17.1196 4.2326 17.4277 4.43176Z" fill="white"/>
<path fill-rule="evenodd" clip-rule="evenodd" d="M37.9738 3.3125H38.6912L47.2069 26.0625H42.4509L41.9152 24.5625H40.0985L36.2444 13.7709L35.5965 11.8412L34.5475 15H34.5L30.6707 26.0625H25.8787L26.4371 24.5625H23.1591L32.0001 0.8125H37.038L37.9738 3.3125ZM37.4399 3.3125L36.6912 1.3125H32.3475L23.8787 24.0625H26.6233L34.3475 3.3125H37.4399ZM35.8588 11.0515L36.7185 13.6117L40.4509 24.0625H41.7366L38.7185 15.6117L36.5194 9.0625L35.8588 11.0515Z" fill="white"/>
<path fill-rule="evenodd" clip-rule="evenodd" d="M66.6325 19.7969H58.1794V3.3125H56.6794V0.8125H50.9919V24.5625H53.4919V26.0625H68.1325V22.2969H66.6325V19.7969ZM66.1325 22.2969V20.2969H58.1794V22.2969H66.1325ZM53.4919 24.0625H51.4919V1.3125H56.1794V3.3125H53.4919V24.0625Z" fill="white"/>
<path fill-rule="evenodd" clip-rule="evenodd" d="M70.3706 5.60938V7.10938H74.7456V24.5625H77.2456V26.0625H81.9331V7.10938H88.9019V3.3125H87.4019V0.8125H67.8706V5.60938H70.3706ZM86.9019 3.3125V1.3125H68.3706V5.10938H70.3706V3.3125H86.9019ZM77.2456 24.0625H75.2456V7.10938H77.2456V24.0625Z" fill="white"/>
</svg>
