<svg width="66" height="65" viewBox="0 0 66 65" fill="none" xmlns="http://www.w3.org/2000/svg">
<g filter="url(#filter0_bd)">
<mask id="path-1-inside-1" fill="white">
<path fill-rule="evenodd" clip-rule="evenodd" d="M23.6042 48.4449C21.6619 47.7576 20.1932 46.6265 18.9071 45.2028C18.8142 45.0999 18.6057 45.0484 18.4644 45.0703C15.2157 45.5728 12.6562 44.1757 10.4362 41.8298C10.3463 41.7349 10.2583 41.6378 10.1637 41.5485C10.1371 41.5234 10.0904 41.5223 10.1013 41.5258C9.53061 42.9721 8.96206 44.4114 8.39479 45.8512C8.21518 46.3069 7.91579 46.5836 7.42929 46.5742C6.68431 46.5598 6.3077 45.8219 6.61179 45.0176C7.0979 43.7319 7.59277 42.4489 8.03786 41.1472C8.44623 39.9527 8.41486 38.8248 7.86053 37.6032C6.75481 35.1666 6.42671 32.4955 6.36892 29.8251C6.30871 27.0521 6.49899 24.2737 6.46723 21.499C6.43624 18.7947 6.26158 16.0922 6.1526 13.3888C6.1023 12.1387 5.9246 10.8749 6.03612 9.64054C6.39394 5.68169 9.22513 5.50661 11.4292 6.52873C13.2631 7.37926 14.2811 9.06217 14.8413 10.9878C15.3486 12.7316 15.616 14.5535 15.9906 16.3406C16.0478 16.614 16.1126 16.8857 16.2019 17.2822C16.7042 16.5994 17.1167 16.0144 17.5529 15.45C19.0468 13.5175 20.6555 11.709 22.6857 10.3905C24.4337 9.25527 26.3039 8.58561 28.3622 9.19705C30.3414 9.78496 31.813 11.0559 32.5469 13.149C32.667 13.4919 32.8198 13.6049 33.1711 13.646C35.3605 13.9023 36.8283 15.131 37.5295 17.3658C37.6016 17.5955 37.7459 17.8843 37.9316 17.9763C39.4906 18.7479 40.8179 19.7558 41.4029 21.6267C42.9998 20.8894 44.4054 19.9337 45.6733 18.7933C46.9758 17.6221 48.1828 16.3298 49.4073 15.0643C50.1488 14.298 50.9394 13.6335 51.9968 13.4884C54.3663 13.1633 56.3116 15.3401 55.9584 17.8849C55.656 20.0629 54.6418 21.8838 53.3882 23.5713C51.0702 26.6913 48.1995 29.179 45.0358 31.2396C43.1937 32.4397 41.8131 34.02 40.5565 35.8047C38.7616 38.354 37.0103 40.9416 35.1243 43.4139C33.4272 45.6386 31.3449 47.3968 28.7025 48.2522C28.0199 48.4731 27.2989 48.558 26.6014 48.7316C26.3657 48.7903 26.097 48.8736 25.93 49.0418C24.4916 50.4905 23.0577 51.9452 21.6562 53.4336C21.108 54.0159 20.5957 54.19 20.1208 53.7928C19.6547 53.4031 19.6311 52.7412 20.1419 52.1451C21.0792 51.0513 22.052 49.9916 23.0178 48.9255C23.1588 48.7698 23.3423 48.6571 23.6042 48.4449ZM17.2436 19.3791C17.4636 19.6681 17.6511 19.9084 17.8324 20.1537C18.2767 20.7556 18.2562 21.3541 17.7816 21.7492C17.3376 22.1186 16.797 22.017 16.3373 21.4728C15.0027 19.8925 14.1955 18.0665 13.9492 15.9483C13.7214 13.9885 13.3733 12.052 12.4229 10.3085C11.8545 9.2659 11.0974 8.45867 9.93734 8.17587C8.72619 7.88071 8.10861 8.26341 8.01474 9.56496C7.93649 10.6508 7.96965 11.7578 8.0691 12.8434C8.35325 15.9442 8.64108 19.0362 8.40393 22.162C8.1288 25.7857 8.08905 29.4136 8.63587 33.02C9.08147 35.9588 10.0457 38.6509 12.1574 40.7302C13.7439 42.2921 15.5555 43.3328 17.8195 43.0695C19.4977 42.8743 20.8115 41.9219 22.0077 40.7333C22.5752 40.1694 23.1561 40.1597 23.5654 40.6521C23.9554 41.1214 23.899 41.7265 23.3333 42.2339C22.5371 42.9478 21.6992 43.6094 20.8801 44.2925C22.779 46.5214 25.6364 47.2465 28.389 46.1989C30.5501 45.3765 32.2654 43.8871 33.6669 42.0337C35.5032 39.6048 37.2253 37.0785 38.983 34.5837C40.3664 32.6201 41.7842 30.7113 43.9259 29.5768C44.5256 29.2591 45.0577 28.7925 45.6045 28.3705C48.1273 26.4235 50.5176 24.3239 52.3493 21.6068C53.1656 20.396 53.8408 19.1115 54.0316 17.5995C54.1363 16.7706 53.8401 16.1498 53.1844 15.7248C52.5242 15.2971 51.9148 15.5187 51.3736 15.991C51.0165 16.3027 50.6869 16.6554 50.3744 17.0182C48.2594 19.473 45.8702 21.582 43.0512 23.0443C41.9842 23.5976 41.4871 24.2154 41.2893 25.4888C40.8663 28.2101 39.3635 30.4239 37.7914 32.5492C36.5331 34.2503 35.1451 35.8244 33.3148 36.8592C31.3865 37.9492 29.3326 37.2952 28.2725 35.264C28.0003 34.7424 27.8113 34.1721 27.585 33.6264C24.6758 33.9023 23.7791 33.1513 23.0161 29.7769C22.8371 29.8234 22.6563 29.8657 22.478 29.9176C20.9167 30.3718 19.5888 29.8153 18.8341 28.3017C18.0012 26.6316 18.0884 24.9933 19.1329 23.429C20.561 21.2901 21.9869 19.1492 23.3931 16.994C23.8138 16.3492 24.299 16.1207 24.8155 16.4348C25.3348 16.751 25.4661 17.3517 25.0919 18.0091C24.6669 18.7558 24.2049 19.4806 23.7293 20.1929C22.7036 21.7291 21.6475 23.2426 20.6267 24.7823C20.0676 25.6257 20.1382 26.879 20.7354 27.6027C21.2066 28.1737 21.8619 28.2606 22.8653 27.5559C24.056 26.7198 25.2281 25.8042 26.2404 24.7434C28.3866 22.4945 30.0736 19.8967 30.785 16.7268C31.5102 13.4961 29.5265 10.8758 26.5303 11.0654C25.3337 11.141 24.295 11.7088 23.329 12.4166C20.831 14.2458 18.9875 16.7189 17.2436 19.3791ZM33.0226 15.7295C32.7364 16.8364 32.5488 17.9709 32.1535 19.0175C30.7464 22.7444 28.4285 25.7535 25.465 28.2283C25.2819 28.3812 25.0347 28.618 25.0351 28.8154C25.0364 29.4118 25.0692 30.0317 25.2284 30.5986C25.5008 31.5675 26.1513 31.901 27.0582 31.5625C27.5902 31.364 28.1219 31.0971 28.578 30.7495C31.6777 28.3871 33.9461 25.3085 35.3524 21.5594C35.6776 20.693 35.8093 19.683 35.7866 18.7456C35.7443 17.005 34.5532 15.8242 33.0226 15.7295ZM37.7462 20.2115C37.6601 20.597 37.6048 20.9281 37.5122 21.247C36.2256 25.6847 33.6013 29.1229 30.2758 32.0219C29.3545 32.8251 29.3234 32.7883 29.8313 33.9453C29.911 34.1267 30.0041 34.3041 30.1105 34.4692C30.6471 35.3018 31.4054 35.5675 32.2591 35.1189C32.82 34.8242 33.3588 34.4432 33.833 34.0093C35.5766 32.4137 36.9537 30.4928 38.1366 28.4085C38.9996 26.888 39.5403 25.262 39.6267 23.4777C39.6999 21.9662 39.0701 20.911 37.7462 20.2115Z"/>
</mask>
<path fill-rule="evenodd" clip-rule="evenodd" d="M23.6042 48.4449C21.6619 47.7576 20.1932 46.6265 18.9071 45.2028C18.8142 45.0999 18.6057 45.0484 18.4644 45.0703C15.2157 45.5728 12.6562 44.1757 10.4362 41.8298C10.3463 41.7349 10.2583 41.6378 10.1637 41.5485C10.1371 41.5234 10.0904 41.5223 10.1013 41.5258C9.53061 42.9721 8.96206 44.4114 8.39479 45.8512C8.21518 46.3069 7.91579 46.5836 7.42929 46.5742C6.68431 46.5598 6.3077 45.8219 6.61179 45.0176C7.0979 43.7319 7.59277 42.4489 8.03786 41.1472C8.44623 39.9527 8.41486 38.8248 7.86053 37.6032C6.75481 35.1666 6.42671 32.4955 6.36892 29.8251C6.30871 27.0521 6.49899 24.2737 6.46723 21.499C6.43624 18.7947 6.26158 16.0922 6.1526 13.3888C6.1023 12.1387 5.9246 10.8749 6.03612 9.64054C6.39394 5.68169 9.22513 5.50661 11.4292 6.52873C13.2631 7.37926 14.2811 9.06217 14.8413 10.9878C15.3486 12.7316 15.616 14.5535 15.9906 16.3406C16.0478 16.614 16.1126 16.8857 16.2019 17.2822C16.7042 16.5994 17.1167 16.0144 17.5529 15.45C19.0468 13.5175 20.6555 11.709 22.6857 10.3905C24.4337 9.25527 26.3039 8.58561 28.3622 9.19705C30.3414 9.78496 31.813 11.0559 32.5469 13.149C32.667 13.4919 32.8198 13.6049 33.1711 13.646C35.3605 13.9023 36.8283 15.131 37.5295 17.3658C37.6016 17.5955 37.7459 17.8843 37.9316 17.9763C39.4906 18.7479 40.8179 19.7558 41.4029 21.6267C42.9998 20.8894 44.4054 19.9337 45.6733 18.7933C46.9758 17.6221 48.1828 16.3298 49.4073 15.0643C50.1488 14.298 50.9394 13.6335 51.9968 13.4884C54.3663 13.1633 56.3116 15.3401 55.9584 17.8849C55.656 20.0629 54.6418 21.8838 53.3882 23.5713C51.0702 26.6913 48.1995 29.179 45.0358 31.2396C43.1937 32.4397 41.8131 34.02 40.5565 35.8047C38.7616 38.354 37.0103 40.9416 35.1243 43.4139C33.4272 45.6386 31.3449 47.3968 28.7025 48.2522C28.0199 48.4731 27.2989 48.558 26.6014 48.7316C26.3657 48.7903 26.097 48.8736 25.93 49.0418C24.4916 50.4905 23.0577 51.9452 21.6562 53.4336C21.108 54.0159 20.5957 54.19 20.1208 53.7928C19.6547 53.4031 19.6311 52.7412 20.1419 52.1451C21.0792 51.0513 22.052 49.9916 23.0178 48.9255C23.1588 48.7698 23.3423 48.6571 23.6042 48.4449ZM17.2436 19.3791C17.4636 19.6681 17.6511 19.9084 17.8324 20.1537C18.2767 20.7556 18.2562 21.3541 17.7816 21.7492C17.3376 22.1186 16.797 22.017 16.3373 21.4728C15.0027 19.8925 14.1955 18.0665 13.9492 15.9483C13.7214 13.9885 13.3733 12.052 12.4229 10.3085C11.8545 9.2659 11.0974 8.45867 9.93734 8.17587C8.72619 7.88071 8.10861 8.26341 8.01474 9.56496C7.93649 10.6508 7.96965 11.7578 8.0691 12.8434C8.35325 15.9442 8.64108 19.0362 8.40393 22.162C8.1288 25.7857 8.08905 29.4136 8.63587 33.02C9.08147 35.9588 10.0457 38.6509 12.1574 40.7302C13.7439 42.2921 15.5555 43.3328 17.8195 43.0695C19.4977 42.8743 20.8115 41.9219 22.0077 40.7333C22.5752 40.1694 23.1561 40.1597 23.5654 40.6521C23.9554 41.1214 23.899 41.7265 23.3333 42.2339C22.5371 42.9478 21.6992 43.6094 20.8801 44.2925C22.779 46.5214 25.6364 47.2465 28.389 46.1989C30.5501 45.3765 32.2654 43.8871 33.6669 42.0337C35.5032 39.6048 37.2253 37.0785 38.983 34.5837C40.3664 32.6201 41.7842 30.7113 43.9259 29.5768C44.5256 29.2591 45.0577 28.7925 45.6045 28.3705C48.1273 26.4235 50.5176 24.3239 52.3493 21.6068C53.1656 20.396 53.8408 19.1115 54.0316 17.5995C54.1363 16.7706 53.8401 16.1498 53.1844 15.7248C52.5242 15.2971 51.9148 15.5187 51.3736 15.991C51.0165 16.3027 50.6869 16.6554 50.3744 17.0182C48.2594 19.473 45.8702 21.582 43.0512 23.0443C41.9842 23.5976 41.4871 24.2154 41.2893 25.4888C40.8663 28.2101 39.3635 30.4239 37.7914 32.5492C36.5331 34.2503 35.1451 35.8244 33.3148 36.8592C31.3865 37.9492 29.3326 37.2952 28.2725 35.264C28.0003 34.7424 27.8113 34.1721 27.585 33.6264C24.6758 33.9023 23.7791 33.1513 23.0161 29.7769C22.8371 29.8234 22.6563 29.8657 22.478 29.9176C20.9167 30.3718 19.5888 29.8153 18.8341 28.3017C18.0012 26.6316 18.0884 24.9933 19.1329 23.429C20.561 21.2901 21.9869 19.1492 23.3931 16.994C23.8138 16.3492 24.299 16.1207 24.8155 16.4348C25.3348 16.751 25.4661 17.3517 25.0919 18.0091C24.6669 18.7558 24.2049 19.4806 23.7293 20.1929C22.7036 21.7291 21.6475 23.2426 20.6267 24.7823C20.0676 25.6257 20.1382 26.879 20.7354 27.6027C21.2066 28.1737 21.8619 28.2606 22.8653 27.5559C24.056 26.7198 25.2281 25.8042 26.2404 24.7434C28.3866 22.4945 30.0736 19.8967 30.785 16.7268C31.5102 13.4961 29.5265 10.8758 26.5303 11.0654C25.3337 11.141 24.295 11.7088 23.329 12.4166C20.831 14.2458 18.9875 16.7189 17.2436 19.3791ZM33.0226 15.7295C32.7364 16.8364 32.5488 17.9709 32.1535 19.0175C30.7464 22.7444 28.4285 25.7535 25.465 28.2283C25.2819 28.3812 25.0347 28.618 25.0351 28.8154C25.0364 29.4118 25.0692 30.0317 25.2284 30.5986C25.5008 31.5675 26.1513 31.901 27.0582 31.5625C27.5902 31.364 28.1219 31.0971 28.578 30.7495C31.6777 28.3871 33.9461 25.3085 35.3524 21.5594C35.6776 20.693 35.8093 19.683 35.7866 18.7456C35.7443 17.005 34.5532 15.8242 33.0226 15.7295ZM37.7462 20.2115C37.6601 20.597 37.6048 20.9281 37.5122 21.247C36.2256 25.6847 33.6013 29.1229 30.2758 32.0219C29.3545 32.8251 29.3234 32.7883 29.8313 33.9453C29.911 34.1267 30.0041 34.3041 30.1105 34.4692C30.6471 35.3018 31.4054 35.5675 32.2591 35.1189C32.82 34.8242 33.3588 34.4432 33.833 34.0093C35.5766 32.4137 36.9537 30.4928 38.1366 28.4085C38.9996 26.888 39.5403 25.262 39.6267 23.4777C39.6999 21.9662 39.0701 20.911 37.7462 20.2115Z" fill="#EDF2F7"/>
<path fill-rule="evenodd" clip-rule="evenodd" d="M23.6042 48.4449C21.6619 47.7576 20.1932 46.6265 18.9071 45.2028C18.8142 45.0999 18.6057 45.0484 18.4644 45.0703C15.2157 45.5728 12.6562 44.1757 10.4362 41.8298C10.3463 41.7349 10.2583 41.6378 10.1637 41.5485C10.1371 41.5234 10.0904 41.5223 10.1013 41.5258C9.53061 42.9721 8.96206 44.4114 8.39479 45.8512C8.21518 46.3069 7.91579 46.5836 7.42929 46.5742C6.68431 46.5598 6.3077 45.8219 6.61179 45.0176C7.0979 43.7319 7.59277 42.4489 8.03786 41.1472C8.44623 39.9527 8.41486 38.8248 7.86053 37.6032C6.75481 35.1666 6.42671 32.4955 6.36892 29.8251C6.30871 27.0521 6.49899 24.2737 6.46723 21.499C6.43624 18.7947 6.26158 16.0922 6.1526 13.3888C6.1023 12.1387 5.9246 10.8749 6.03612 9.64054C6.39394 5.68169 9.22513 5.50661 11.4292 6.52873C13.2631 7.37926 14.2811 9.06217 14.8413 10.9878C15.3486 12.7316 15.616 14.5535 15.9906 16.3406C16.0478 16.614 16.1126 16.8857 16.2019 17.2822C16.7042 16.5994 17.1167 16.0144 17.5529 15.45C19.0468 13.5175 20.6555 11.709 22.6857 10.3905C24.4337 9.25527 26.3039 8.58561 28.3622 9.19705C30.3414 9.78496 31.813 11.0559 32.5469 13.149C32.667 13.4919 32.8198 13.6049 33.1711 13.646C35.3605 13.9023 36.8283 15.131 37.5295 17.3658C37.6016 17.5955 37.7459 17.8843 37.9316 17.9763C39.4906 18.7479 40.8179 19.7558 41.4029 21.6267C42.9998 20.8894 44.4054 19.9337 45.6733 18.7933C46.9758 17.6221 48.1828 16.3298 49.4073 15.0643C50.1488 14.298 50.9394 13.6335 51.9968 13.4884C54.3663 13.1633 56.3116 15.3401 55.9584 17.8849C55.656 20.0629 54.6418 21.8838 53.3882 23.5713C51.0702 26.6913 48.1995 29.179 45.0358 31.2396C43.1937 32.4397 41.8131 34.02 40.5565 35.8047C38.7616 38.354 37.0103 40.9416 35.1243 43.4139C33.4272 45.6386 31.3449 47.3968 28.7025 48.2522C28.0199 48.4731 27.2989 48.558 26.6014 48.7316C26.3657 48.7903 26.097 48.8736 25.93 49.0418C24.4916 50.4905 23.0577 51.9452 21.6562 53.4336C21.108 54.0159 20.5957 54.19 20.1208 53.7928C19.6547 53.4031 19.6311 52.7412 20.1419 52.1451C21.0792 51.0513 22.052 49.9916 23.0178 48.9255C23.1588 48.7698 23.3423 48.6571 23.6042 48.4449ZM17.2436 19.3791C17.4636 19.6681 17.6511 19.9084 17.8324 20.1537C18.2767 20.7556 18.2562 21.3541 17.7816 21.7492C17.3376 22.1186 16.797 22.017 16.3373 21.4728C15.0027 19.8925 14.1955 18.0665 13.9492 15.9483C13.7214 13.9885 13.3733 12.052 12.4229 10.3085C11.8545 9.2659 11.0974 8.45867 9.93734 8.17587C8.72619 7.88071 8.10861 8.26341 8.01474 9.56496C7.93649 10.6508 7.96965 11.7578 8.0691 12.8434C8.35325 15.9442 8.64108 19.0362 8.40393 22.162C8.1288 25.7857 8.08905 29.4136 8.63587 33.02C9.08147 35.9588 10.0457 38.6509 12.1574 40.7302C13.7439 42.2921 15.5555 43.3328 17.8195 43.0695C19.4977 42.8743 20.8115 41.9219 22.0077 40.7333C22.5752 40.1694 23.1561 40.1597 23.5654 40.6521C23.9554 41.1214 23.899 41.7265 23.3333 42.2339C22.5371 42.9478 21.6992 43.6094 20.8801 44.2925C22.779 46.5214 25.6364 47.2465 28.389 46.1989C30.5501 45.3765 32.2654 43.8871 33.6669 42.0337C35.5032 39.6048 37.2253 37.0785 38.983 34.5837C40.3664 32.6201 41.7842 30.7113 43.9259 29.5768C44.5256 29.2591 45.0577 28.7925 45.6045 28.3705C48.1273 26.4235 50.5176 24.3239 52.3493 21.6068C53.1656 20.396 53.8408 19.1115 54.0316 17.5995C54.1363 16.7706 53.8401 16.1498 53.1844 15.7248C52.5242 15.2971 51.9148 15.5187 51.3736 15.991C51.0165 16.3027 50.6869 16.6554 50.3744 17.0182C48.2594 19.473 45.8702 21.582 43.0512 23.0443C41.9842 23.5976 41.4871 24.2154 41.2893 25.4888C40.8663 28.2101 39.3635 30.4239 37.7914 32.5492C36.5331 34.2503 35.1451 35.8244 33.3148 36.8592C31.3865 37.9492 29.3326 37.2952 28.2725 35.264C28.0003 34.7424 27.8113 34.1721 27.585 33.6264C24.6758 33.9023 23.7791 33.1513 23.0161 29.7769C22.8371 29.8234 22.6563 29.8657 22.478 29.9176C20.9167 30.3718 19.5888 29.8153 18.8341 28.3017C18.0012 26.6316 18.0884 24.9933 19.1329 23.429C20.561 21.2901 21.9869 19.1492 23.3931 16.994C23.8138 16.3492 24.299 16.1207 24.8155 16.4348C25.3348 16.751 25.4661 17.3517 25.0919 18.0091C24.6669 18.7558 24.2049 19.4806 23.7293 20.1929C22.7036 21.7291 21.6475 23.2426 20.6267 24.7823C20.0676 25.6257 20.1382 26.879 20.7354 27.6027C21.2066 28.1737 21.8619 28.2606 22.8653 27.5559C24.056 26.7198 25.2281 25.8042 26.2404 24.7434C28.3866 22.4945 30.0736 19.8967 30.785 16.7268C31.5102 13.4961 29.5265 10.8758 26.5303 11.0654C25.3337 11.141 24.295 11.7088 23.329 12.4166C20.831 14.2458 18.9875 16.7189 17.2436 19.3791ZM33.0226 15.7295C32.7364 16.8364 32.5488 17.9709 32.1535 19.0175C30.7464 22.7444 28.4285 25.7535 25.465 28.2283C25.2819 28.3812 25.0347 28.618 25.0351 28.8154C25.0364 29.4118 25.0692 30.0317 25.2284 30.5986C25.5008 31.5675 26.1513 31.901 27.0582 31.5625C27.5902 31.364 28.1219 31.0971 28.578 30.7495C31.6777 28.3871 33.9461 25.3085 35.3524 21.5594C35.6776 20.693 35.8093 19.683 35.7866 18.7456C35.7443 17.005 34.5532 15.8242 33.0226 15.7295ZM37.7462 20.2115C37.6601 20.597 37.6048 20.9281 37.5122 21.247C36.2256 25.6847 33.6013 29.1229 30.2758 32.0219C29.3545 32.8251 29.3234 32.7883 29.8313 33.9453C29.911 34.1267 30.0041 34.3041 30.1105 34.4692C30.6471 35.3018 31.4054 35.5675 32.2591 35.1189C32.82 34.8242 33.3588 34.4432 33.833 34.0093C35.5766 32.4137 36.9537 30.4928 38.1366 28.4085C38.9996 26.888 39.5403 25.262 39.6267 23.4777C39.6999 21.9662 39.0701 20.911 37.7462 20.2115Z" stroke="white" stroke-width="102" mask="url(#path-1-inside-1)"/>
</g>
<defs>
<filter id="filter0_bd" x="-2" y="-2" width="68" height="66.0074" filterUnits="userSpaceOnUse" color-interpolation-filters="sRGB">
<feFlood flood-opacity="0" result="BackgroundImageFix"/>
<feGaussianBlur in="BackgroundImage" stdDeviation="4"/>
<feComposite in2="SourceAlpha" operator="in" result="effect1_backgroundBlur"/>
<feColorMatrix in="SourceAlpha" type="matrix" values="0 0 0 0 0 0 0 0 0 0 0 0 0 0 0 0 0 0 127 0"/>
<feOffset dx="2" dy="2"/>
<feGaussianBlur stdDeviation="4"/>
<feColorMatrix type="matrix" values="0 0 0 0 0.333333 0 0 0 0 0.333333 0 0 0 0 0.333333 0 0 0 0.7 0"/>
<feBlend mode="normal" in2="effect1_backgroundBlur" result="effect2_dropShadow"/>
<feBlend mode="normal" in="SourceGraphic" in2="effect2_dropShadow" result="shape"/>
</filter>
</defs>
</svg>
